<svg enable-background="new 0 0 174.239 174.239" height="512" viewBox="0 0 174.239 174.239" width="512" xmlns="http://www.w3.org/2000/svg"><g fill="#e0e0e0"><path d="m87.12 0c-48.038 0-87.12 39.082-87.12 87.12s39.082 87.12 87.12 87.12 87.12-39.082 87.12-87.12-39.083-87.12-87.12-87.12zm0 159.305c-39.802 0-72.185-32.383-72.185-72.185s32.383-72.185 72.185-72.185 72.185 32.383 72.185 72.185-32.384 72.185-72.185 72.185z"/><path d="m120.83 53.414c-2.917-2.917-7.647-2.917-10.559 0l-23.151 23.154-23.151-23.154c-2.917-2.917-7.642-2.917-10.559 0s-2.917 7.642 0 10.559l23.151 23.153-23.152 23.154c-2.917 2.917-2.917 7.642 0 10.559 1.458 1.458 3.369 2.188 5.28 2.188s3.824-.729 5.28-2.188l23.151-23.153 23.151 23.153c1.458 1.458 3.369 2.188 5.28 2.188s3.821-.729 5.28-2.188c2.917-2.917 2.917-7.642 0-10.559l-23.152-23.153 23.151-23.153c2.917-2.917 2.917-7.643 0-10.56z"/></g></svg>